#!OML:ASF H:\GeneralSubjects\Female5\Project 1\Capture day 1\Session 1\Female5.ASF
:FULLY-SPECIFIED
:DEGREES
510
root 6.62918 15.9862 -1.46931 13.5461 -74.2824 -18.2904
lowerback 15.4386 -1.38472 6.06186
upperback -6.77897 -0.0520539 3.9271
thorax -16.5655 -0.419795 1.11673
lowerneck -13.8358 -4.78233 -7.50438
upperneck 36.2898 -4.99632 -3.38167
head 15.1321 -4.08861 -1.06904
rclavicle 5.78463e-014 4.6118e-014
rhumerus -15.9133 1.24784 -29.6671
rradius 86.6749
rwrist 5.91437
rhand -32.2406 0.0677061
rfingers 7.12502
rthumb -5.48107 -29.8414
lclavicle 5.78463e-014 4.6118e-014
lhumerus -42.6479 8.40042 53.7914
lradius 43.811
lwrist -14.844
lhand -19.9709 25.6577
lfingers 7.12502
lthumb 6.36791 -304.458
rfemur 10.1329 19.2598 37.7832
rtibia 2.63053
rfoot -32.6374 -31.2035
rtoes 11.9366
lfemur -56.1037 -7.64647 -12.9373
ltibia 44.0015
lfoot -14.2142 7.8488
ltoes -25.118
511
root 6.61003 16.0082 -1.3587 14.3039 -74.7934 -18.4981
lowerback 15.0053 -1.26084 5.88713
upperback -6.81232 0.0277032 3.85929
thorax -16.3223 -0.369413 1.1005
lowerneck -13.8934 -4.73634 -7.2049
upperneck 36.033 -5.03209 -3.26306
head 15.0092 -4.03309 -1.06406
rclavicle -1.55052e-014 1.51076e-014
rhumerus -16.4586 1.34031 -30.033
rradius 86.9793
rwrist 5.66234
rhand -32.1836 -0.0914469
rfingers 7.12502
rthumb -5.42598 -30.002
lclavicle -1.55052e-014 1.51076e-014
lhumerus -42.5851 8.51374 53.8168
lradius 43.4846
lwrist -14.3919
lhand -19.5643 25.7942
lfingers 7.12502
lthumb 6.76041 -304.334
rfemur 9.90079 19.8944 37.3201
rtibia 2.42435
rfoot -32.4887 -31.3526
rtoes 11.2771
lfemur -54.2547 -7.73864 -12.6424
ltibia 48.4668
lfoot -12.4766 9.87354
ltoes -21.8997
512
root 6.58603 16.0305 -1.23533 14.505 -75.4831 -18.1179
lowerback 14.5911 -1.08999 5.53328
upperback -6.87463 0.133579 3.74755
thorax -16.1237 -0.291543 1.13047
lowerneck -13.9647 -4.68253 -7.293
upperneck 35.8529 -5.03195 -2.89837
head 14.9534 -3.98411 -0.891318
rclavicle 0 -3.18055e-015
rhumerus -17.2497 1.71525 -30.3749
rradius 87.4346
rwrist 5.42276
rhand -32.3394 -0.255636
rfingers 7.12502
rthumb -5.5764 -30.1623
lclavicle 0 -3.18055e-015
lhumerus -42.6753 8.67684 53.8452
lradius 43.1157
lwrist -14.0315
lhand -19.1997 26.2458
lfingers 7.12502
lthumb 7.1124 -303.894
rfemur 9.60969 20.2977 36.4898
rtibia 2.24594
rfoot -31.7265 -31.4316
rtoes 10.3763
lfemur -51.7458 -8.04048 -12.5016
ltibia 51.9042
lfoot -11.9589 11.5672
ltoes -20.421
513
root 6.55925 16.0516 -1.10182 14.43 -76.3189 -17.469
lowerback 13.9992 -0.865248 5.03261
upperback -6.81678 0.270037 3.67017
thorax -15.6641 -0.178372 1.26491
lowerneck -14.0871 -4.60441 -6.88343
upperneck 35.5059 -4.96161 -2.98559
head 14.792 -3.89357 -0.971311
rclavicle 1.05356e-014 -3.97569e-015
rhumerus -17.7453 1.79628 -30.8187
rradius 87.8778
rwrist 5.2283
rhand -32.7541 -0.366657
rfingers 7.12502
rthumb -5.97686 -30.2624
lclavicle 1.05356e-014 -3.97569e-015
lhumerus -42.6435 9.16598 53.9987
lradius 42.5298
lwrist -13.9089
lhand -19.0922 26.5025
lfingers 7.12502
lthumb 7.21613 -303.64
rfemur 9.23399 20.555 35.4181
rtibia 2.15127
rfoot -30.8891 -31.1185
rtoes 9.81676
lfemur -48.6314 -8.5354 -12.4664
ltibia 54.1537
lfoot -12.3285 12.789
ltoes -21.3277
514
root 6.5286 16.0713 -0.966835 14.7121 -77.3114 -17.1037
lowerback 13.9531 -0.699056 4.74814
upperback -7.06979 0.413082 3.42344
thorax -15.935 -0.105772 1.11465
lowerneck -14.5204 -4.48781 -6.67091
upperneck 35.6696 -4.88233 -2.77792
head 14.9616 -3.80355 -0.929385
rclavicle 1.98785e-016 4.53229e-014
rhumerus -16.677 -0.466574 -33.1263
rradius 86.9707
rwrist 6.82807
rhand -31.5802 0.155367
rfingers 7.12502
rthumb -4.84339 -29.7693
lclavicle 1.98785e-016 4.53229e-014
lhumerus -43.2284 9.04198 53.7983
lradius 42.2474
lwrist -13.4807
lhand -19.3634 27.0805
lfingers 7.12502
lthumb 6.95438 -303.054
rfemur 8.64965 21.0158 34.3698
rtibia 2.25003
rfoot -30.2724 -30.7103
rtoes 9.17952
lfemur -45.1107 -9.10763 -12.4155
ltibia 55.3063
lfoot -12.5509 13.7802
ltoes -23.1702
515
root 6.49549 16.0921 -0.829355 15.9731 -78.3668 -17.6273
lowerback 13.6265 -0.426324 4.66454
upperback -7.24447 0.713594 3.16401
thorax -15.9277 0.0185964 0.78482
lowerneck -14.9016 -4.46576 -6.34258
upperneck 35.5851 -4.95831 -2.59769
head 14.9992 -3.75549 -0.93094
rclavicle 2.98177e-015 -2.46493e-014
rhumerus -16.9615 -1.65718 -34.6316
rradius 86.897
rwrist 7.38635
rhand -30.7797 0.0480678
rfingers 7.12502
rthumb -4.07044 -29.8928
lclavicle 2.98177e-015 -2.46493e-014
lhumerus -43.5415 8.95081 53.6164
lradius 41.9391
lwrist -13.1549
lhand -19.562 27.481
lfingers 7.12502
lthumb 6.76267 -302.647
rfemur 7.84002 21.7107 33.5067
rtibia 2.53284
rfoot -29.6503 -30.5857
rtoes 7.9863
lfemur -41.276 -9.7616 -12.354
ltibia 54.5324
lfoot -12.4094 15.0499
ltoes -24.6432
